<?xml version="1.0" standalone="no"?>
<!DOCTYPE svg PUBLIC "-//W3C//DTD SVG 20010904//EN"
 "http://www.w3.org/TR/2001/REC-SVG-20010904/DTD/svg10.dtd">
<svg version="1.0" xmlns="http://www.w3.org/2000/svg"
 width="500.000000pt" height="500.000000pt" viewBox="0 0 500.000000 500.000000"
 preserveAspectRatio="xMidYMid meet">

<g transform="translate(0.000000,500.000000) scale(0.100000,-0.100000)"
fill="#000000" stroke="none">
<path d="M1700 2988 c-62 -161 -168 -435 -235 -608 -361 -927 -445 -1147 -445
-1163 0 -16 16 -17 197 -15 l197 3 111 320 c250 719 299 855 306 848 5 -5 99
-265 210 -578 111 -314 207 -576 212 -583 11 -14 382 -18 391 -4 2 4 -9 41
-25 82 -15 41 -27 75 -26 76 1 1 40 -21 87 -48 322 -185 787 -145 1027 89 116
114 174 234 193 405 7 59 10 339 8 778 l-3 685 -190 0 -190 0 -5 -735 -5 -735
-23 -47 c-25 -51 -85 -108 -142 -137 -92 -47 -274 -57 -374 -22 -76 27 -144
77 -183 135 -62 92 -63 97 -63 658 l0 508 -190 0 -190 0 0 -447 c0 -256 -4
-443 -9 -438 -5 6 -23 48 -41 95 -88 231 -441 1137 -449 1150 -25 44 -38 21
-151 -272z"/>
</g>
</svg>
